<mxfile host="app.diagrams.net" agent="Mozilla/5.0 (Windows NT 10.0; Win64; x64) AppleWebKit/537.36 (KHTML, like Gecko) Chrome/133.0.0.0 Safari/537.36" version="26.0.13">
  <diagram name="Page-1" id="6saZNYcrLodcOuAmdLzd">
    <mxGraphModel dx="794" dy="412" grid="1" gridSize="10" guides="1" tooltips="1" connect="1" arrows="1" fold="1" page="1" pageScale="1" pageWidth="827" pageHeight="1169" math="0" shadow="0">
      <root>
        <mxCell id="0" />
        <mxCell id="1" parent="0" />
        <mxCell id="bRfTEf3vcqRI0EIgpDa1-1" value="&lt;div&gt;&lt;br&gt;&lt;/div&gt;&lt;div&gt;&lt;br&gt;&lt;/div&gt;&lt;div&gt;&lt;br&gt;&lt;/div&gt;&lt;div&gt;&lt;br&gt;&lt;/div&gt;" style="whiteSpace=wrap;html=1;aspect=fixed;align=left;fillColor=light-dark(#9433FF,var(--ge-dark-color, #121212));" vertex="1" parent="1">
          <mxGeometry x="10" y="10" width="230" height="230" as="geometry" />
        </mxCell>
        <mxCell id="bRfTEf3vcqRI0EIgpDa1-2" value="&lt;span style=&quot;text-align: left;&quot;&gt;fronted layer&lt;/span&gt;" style="text;html=1;align=center;verticalAlign=middle;whiteSpace=wrap;rounded=0;" vertex="1" parent="1">
          <mxGeometry x="90" y="30" width="60" height="30" as="geometry" />
        </mxCell>
        <mxCell id="bRfTEf3vcqRI0EIgpDa1-3" value="" style="rounded=1;whiteSpace=wrap;html=1;fillColor=light-dark(#6BFF44,var(--ge-dark-color, #121212));" vertex="1" parent="1">
          <mxGeometry x="50" y="90" width="120" height="40" as="geometry" />
        </mxCell>
        <mxCell id="bRfTEf3vcqRI0EIgpDa1-4" value="Web Interface" style="text;html=1;align=center;verticalAlign=middle;whiteSpace=wrap;rounded=0;" vertex="1" parent="1">
          <mxGeometry x="90" y="90" width="60" height="30" as="geometry" />
        </mxCell>
        <mxCell id="bRfTEf3vcqRI0EIgpDa1-5" value="" style="endArrow=classic;startArrow=classic;html=1;rounded=0;entryX=0;entryY=0.364;entryDx=0;entryDy=0;entryPerimeter=0;" edge="1" parent="1">
          <mxGeometry width="50" height="50" relative="1" as="geometry">
            <mxPoint x="184" y="111.77" as="sourcePoint" />
            <mxPoint x="414" y="108.23000000000003" as="targetPoint" />
          </mxGeometry>
        </mxCell>
        <mxCell id="bRfTEf3vcqRI0EIgpDa1-8" value="Text" style="edgeLabel;html=1;align=center;verticalAlign=middle;resizable=0;points=[];" vertex="1" connectable="0" parent="bRfTEf3vcqRI0EIgpDa1-5">
          <mxGeometry x="-0.3619" y="-2" relative="1" as="geometry">
            <mxPoint as="offset" />
          </mxGeometry>
        </mxCell>
        <mxCell id="bRfTEf3vcqRI0EIgpDa1-9" value="Text" style="edgeLabel;html=1;align=center;verticalAlign=middle;resizable=0;points=[];" vertex="1" connectable="0" parent="bRfTEf3vcqRI0EIgpDa1-5">
          <mxGeometry x="0.5709" y="-1" relative="1" as="geometry">
            <mxPoint as="offset" />
          </mxGeometry>
        </mxCell>
        <mxCell id="bRfTEf3vcqRI0EIgpDa1-6" value="" style="rounded=0;whiteSpace=wrap;html=1;" vertex="1" parent="1">
          <mxGeometry x="380" y="55" width="190" height="140" as="geometry" />
        </mxCell>
        <mxCell id="bRfTEf3vcqRI0EIgpDa1-7" value="Text Query" style="text;html=1;align=center;verticalAlign=middle;whiteSpace=wrap;rounded=0;" vertex="1" parent="1">
          <mxGeometry x="280" y="90" width="60" height="30" as="geometry" />
        </mxCell>
      </root>
    </mxGraphModel>
  </diagram>
</mxfile>
